<?xml version="1.0" encoding="UTF-8" standalone="no"?><!-- Generator: Gravit.io --><svg xmlns="http://www.w3.org/2000/svg" xmlns:xlink="http://www.w3.org/1999/xlink" style="isolation:isolate" viewBox="0 0 128 128" width="128pt" height="128pt"><defs><clipPath id="_clipPath_OyuRBgsOimq1MC0VzKZazjyGn7eB6zwb"><rect width="128" height="128"/></clipPath></defs><g clip-path="url(#_clipPath_OyuRBgsOimq1MC0VzKZazjyGn7eB6zwb)"><mask id="_mask_IGGQo1S8PP5QkLM56FmZp9GSBiMbuoE7" x="-200%" y="-200%" width="400%" height="400%"><rect x="-200%" y="-200%" width="400%" height="400%" style="fill:white;"/><path d=" M 24.58 23.421 L 103.42 23.421 C 107.377 23.421 110.586 26.213 110.586 29.661 L 110.586 98.339 C 110.586 101.787 107.377 104.579 103.42 104.579 L 24.58 104.579 C 20.623 104.579 17.414 101.787 17.414 98.339 L 17.414 29.661 C 17.414 26.213 20.623 23.421 24.58 23.421 Z  M 48.068 52.193 L 48.068 52.193 L 48.068 50.816 L 47.834 50.816 L 47.834 50.816 Q 45.861 50.816 44.899 51.05 L 44.899 51.05 L 44.899 51.05 Q 43.938 51.284 43.938 51.841 L 43.938 51.841 L 43.938 51.841 Q 43.938 52.193 44.523 52.505 L 44.523 52.505 L 44.523 52.505 Q 45.109 52.818 45.959 52.818 L 45.959 52.818 L 45.959 52.818 Q 47.16 52.818 48.068 52.193 L 48.068 52.193 Z  M 58.43 46.978 L 58.43 46.978 L 58.43 46.978 Q 57.463 46.978 56.496 47.32 L 56.496 47.32 L 56.496 52.525 L 56.496 52.525 Q 57.512 52.818 58.459 52.818 L 58.459 52.818 L 58.459 52.818 Q 58.898 52.818 59.309 52.749 L 59.309 52.749 L 59.309 52.749 Q 59.719 52.681 60.168 52.491 L 60.168 52.491 L 60.168 52.491 Q 60.617 52.3 60.949 51.997 L 60.949 51.997 L 60.949 51.997 Q 61.281 51.695 61.496 51.182 L 61.496 51.182 L 61.496 51.182 Q 61.711 50.669 61.711 50.005 L 61.711 50.005 L 61.711 50.005 Q 61.711 49.273 61.491 48.711 L 61.491 48.711 L 61.491 48.711 Q 61.271 48.15 60.939 47.832 L 60.939 47.832 L 60.939 47.832 Q 60.607 47.515 60.148 47.31 L 60.148 47.31 L 60.148 47.31 Q 59.689 47.105 59.279 47.041 L 59.279 47.041 L 59.279 47.041 Q 58.869 46.978 58.43 46.978 L 58.43 46.978 Z  M 69.914 49.937 L 65.969 45.034 L 68.811 45.034 L 71.73 48.56 L 74.543 45.034 L 77.248 45.034 L 73.264 49.947 L 77.053 54.683 L 74.211 54.683 L 71.428 51.363 L 68.781 54.683 L 66.086 54.683 L 69.914 49.937 L 69.914 49.937 L 69.914 49.937 Z  M 24.826 45.425 L 24.826 43.023 L 34.152 47.613 L 34.152 49.732 L 24.826 54.146 L 24.826 51.646 L 31.145 48.609 L 24.826 45.425 L 24.826 45.425 L 24.826 45.425 Z  M 46.027 44.849 L 46.027 44.849 L 46.027 44.849 Q 47.082 44.849 47.878 45.039 L 47.878 45.039 L 47.878 45.039 Q 48.674 45.23 49.162 45.542 L 49.162 45.542 L 49.162 45.542 Q 49.65 45.855 49.953 46.324 L 49.953 46.324 L 49.953 46.324 Q 50.256 46.792 50.368 47.276 L 50.368 47.276 L 50.368 47.276 Q 50.48 47.759 50.48 48.355 L 50.48 48.355 L 50.48 54.683 L 48.684 54.683 L 48.41 54.048 L 48.41 54.048 Q 47.111 54.878 45.451 54.878 L 45.451 54.878 L 45.451 54.878 Q 43.645 54.878 42.521 54.029 L 42.521 54.029 L 42.521 54.029 Q 41.398 53.179 41.398 52.017 L 41.398 52.017 L 41.398 52.017 Q 41.398 51.294 41.765 50.757 L 41.765 50.757 L 41.765 50.757 Q 42.131 50.22 42.727 49.898 L 42.727 49.898 L 42.727 49.898 Q 43.322 49.575 44.221 49.37 L 44.221 49.37 L 44.221 49.37 Q 45.119 49.165 46.022 49.087 L 46.022 49.087 L 46.022 49.087 Q 46.926 49.009 48.068 48.999 L 48.068 48.999 L 48.068 48.667 L 48.068 48.667 Q 48.068 48.296 48.005 48.052 L 48.005 48.052 L 48.005 48.052 Q 47.941 47.808 47.727 47.534 L 47.727 47.534 L 47.727 47.534 Q 47.512 47.261 47.009 47.119 L 47.009 47.119 L 47.009 47.119 Q 46.506 46.978 45.725 46.978 L 45.725 46.978 L 45.725 46.978 Q 44.631 46.978 42.824 47.407 L 42.824 47.407 L 42.434 47.515 L 41.936 45.591 L 42.277 45.474 L 42.277 45.474 Q 44.084 44.849 46.027 44.849 L 46.027 44.849 Z  M 59.064 44.849 L 59.064 44.849 L 59.064 44.849 Q 59.797 44.849 60.48 44.995 L 60.48 44.995 L 60.48 44.995 Q 61.164 45.142 61.828 45.498 L 61.828 45.498 L 61.828 45.498 Q 62.492 45.855 62.98 46.397 L 62.98 46.397 L 62.98 46.397 Q 63.469 46.939 63.771 47.803 L 63.771 47.803 L 63.771 47.803 Q 64.074 48.667 64.074 49.761 L 64.074 49.761 L 64.074 49.761 Q 64.074 52.154 62.629 53.516 L 62.629 53.516 L 62.629 53.516 Q 61.184 54.878 58.732 54.878 L 58.732 54.878 L 58.732 54.878 Q 57.59 54.878 56.496 54.546 L 56.496 54.546 L 56.496 59.868 L 53.996 59.868 L 53.996 45.034 L 55.773 45.034 L 55.998 45.493 L 55.998 45.493 Q 57.492 44.849 59.064 44.849 L 59.064 44.849 Z " fill-rule="evenodd" fill="black" stroke="none"/></mask><path d=" M 24.58 23.421 L 103.42 23.421 C 107.377 23.421 110.586 26.213 110.586 29.661 L 110.586 98.339 C 110.586 101.787 107.377 104.579 103.42 104.579 L 24.58 104.579 C 20.623 104.579 17.414 101.787 17.414 98.339 L 17.414 29.661 C 17.414 26.213 20.623 23.421 24.58 23.421 Z  M 48.068 52.193 L 48.068 52.193 L 48.068 50.816 L 47.834 50.816 L 47.834 50.816 Q 45.861 50.816 44.899 51.05 L 44.899 51.05 L 44.899 51.05 Q 43.938 51.284 43.938 51.841 L 43.938 51.841 L 43.938 51.841 Q 43.938 52.193 44.523 52.505 L 44.523 52.505 L 44.523 52.505 Q 45.109 52.818 45.959 52.818 L 45.959 52.818 L 45.959 52.818 Q 47.16 52.818 48.068 52.193 L 48.068 52.193 Z  M 58.43 46.978 L 58.43 46.978 L 58.43 46.978 Q 57.463 46.978 56.496 47.32 L 56.496 47.32 L 56.496 52.525 L 56.496 52.525 Q 57.512 52.818 58.459 52.818 L 58.459 52.818 L 58.459 52.818 Q 58.898 52.818 59.309 52.749 L 59.309 52.749 L 59.309 52.749 Q 59.719 52.681 60.168 52.491 L 60.168 52.491 L 60.168 52.491 Q 60.617 52.3 60.949 51.997 L 60.949 51.997 L 60.949 51.997 Q 61.281 51.695 61.496 51.182 L 61.496 51.182 L 61.496 51.182 Q 61.711 50.669 61.711 50.005 L 61.711 50.005 L 61.711 50.005 Q 61.711 49.273 61.491 48.711 L 61.491 48.711 L 61.491 48.711 Q 61.271 48.15 60.939 47.832 L 60.939 47.832 L 60.939 47.832 Q 60.607 47.515 60.148 47.31 L 60.148 47.31 L 60.148 47.31 Q 59.689 47.105 59.279 47.041 L 59.279 47.041 L 59.279 47.041 Q 58.869 46.978 58.43 46.978 L 58.43 46.978 Z  M 69.914 49.937 L 65.969 45.034 L 68.811 45.034 L 71.73 48.56 L 74.543 45.034 L 77.248 45.034 L 73.264 49.947 L 77.053 54.683 L 74.211 54.683 L 71.428 51.363 L 68.781 54.683 L 66.086 54.683 L 69.914 49.937 L 69.914 49.937 L 69.914 49.937 Z  M 24.826 45.425 L 24.826 43.023 L 34.152 47.613 L 34.152 49.732 L 24.826 54.146 L 24.826 51.646 L 31.145 48.609 L 24.826 45.425 L 24.826 45.425 L 24.826 45.425 Z  M 46.027 44.849 L 46.027 44.849 L 46.027 44.849 Q 47.082 44.849 47.878 45.039 L 47.878 45.039 L 47.878 45.039 Q 48.674 45.23 49.162 45.542 L 49.162 45.542 L 49.162 45.542 Q 49.65 45.855 49.953 46.324 L 49.953 46.324 L 49.953 46.324 Q 50.256 46.792 50.368 47.276 L 50.368 47.276 L 50.368 47.276 Q 50.48 47.759 50.48 48.355 L 50.48 48.355 L 50.48 54.683 L 48.684 54.683 L 48.41 54.048 L 48.41 54.048 Q 47.111 54.878 45.451 54.878 L 45.451 54.878 L 45.451 54.878 Q 43.645 54.878 42.521 54.029 L 42.521 54.029 L 42.521 54.029 Q 41.398 53.179 41.398 52.017 L 41.398 52.017 L 41.398 52.017 Q 41.398 51.294 41.765 50.757 L 41.765 50.757 L 41.765 50.757 Q 42.131 50.22 42.727 49.898 L 42.727 49.898 L 42.727 49.898 Q 43.322 49.575 44.221 49.37 L 44.221 49.37 L 44.221 49.37 Q 45.119 49.165 46.022 49.087 L 46.022 49.087 L 46.022 49.087 Q 46.926 49.009 48.068 48.999 L 48.068 48.999 L 48.068 48.667 L 48.068 48.667 Q 48.068 48.296 48.005 48.052 L 48.005 48.052 L 48.005 48.052 Q 47.941 47.808 47.727 47.534 L 47.727 47.534 L 47.727 47.534 Q 47.512 47.261 47.009 47.119 L 47.009 47.119 L 47.009 47.119 Q 46.506 46.978 45.725 46.978 L 45.725 46.978 L 45.725 46.978 Q 44.631 46.978 42.824 47.407 L 42.824 47.407 L 42.434 47.515 L 41.936 45.591 L 42.277 45.474 L 42.277 45.474 Q 44.084 44.849 46.027 44.849 L 46.027 44.849 Z  M 59.064 44.849 L 59.064 44.849 L 59.064 44.849 Q 59.797 44.849 60.48 44.995 L 60.48 44.995 L 60.48 44.995 Q 61.164 45.142 61.828 45.498 L 61.828 45.498 L 61.828 45.498 Q 62.492 45.855 62.98 46.397 L 62.98 46.397 L 62.98 46.397 Q 63.469 46.939 63.771 47.803 L 63.771 47.803 L 63.771 47.803 Q 64.074 48.667 64.074 49.761 L 64.074 49.761 L 64.074 49.761 Q 64.074 52.154 62.629 53.516 L 62.629 53.516 L 62.629 53.516 Q 61.184 54.878 58.732 54.878 L 58.732 54.878 L 58.732 54.878 Q 57.59 54.878 56.496 54.546 L 56.496 54.546 L 56.496 59.868 L 53.996 59.868 L 53.996 45.034 L 55.773 45.034 L 55.998 45.493 L 55.998 45.493 Q 57.492 44.849 59.064 44.849 L 59.064 44.849 Z " fill-rule="evenodd" fill="none"/><path d=" M 24.58 23.421 L 103.42 23.421 C 107.377 23.421 110.586 26.213 110.586 29.661 L 110.586 98.339 C 110.586 101.787 107.377 104.579 103.42 104.579 L 24.58 104.579 C 20.623 104.579 17.414 101.787 17.414 98.339 L 17.414 29.661 C 17.414 26.213 20.623 23.421 24.58 23.421 Z  M 48.068 52.193 L 48.068 52.193 L 48.068 50.816 L 47.834 50.816 L 47.834 50.816 Q 45.861 50.816 44.899 51.05 L 44.899 51.05 L 44.899 51.05 Q 43.938 51.284 43.938 51.841 L 43.938 51.841 L 43.938 51.841 Q 43.938 52.193 44.523 52.505 L 44.523 52.505 L 44.523 52.505 Q 45.109 52.818 45.959 52.818 L 45.959 52.818 L 45.959 52.818 Q 47.16 52.818 48.068 52.193 L 48.068 52.193 Z  M 58.43 46.978 L 58.43 46.978 L 58.43 46.978 Q 57.463 46.978 56.496 47.32 L 56.496 47.32 L 56.496 52.525 L 56.496 52.525 Q 57.512 52.818 58.459 52.818 L 58.459 52.818 L 58.459 52.818 Q 58.898 52.818 59.309 52.749 L 59.309 52.749 L 59.309 52.749 Q 59.719 52.681 60.168 52.491 L 60.168 52.491 L 60.168 52.491 Q 60.617 52.3 60.949 51.997 L 60.949 51.997 L 60.949 51.997 Q 61.281 51.695 61.496 51.182 L 61.496 51.182 L 61.496 51.182 Q 61.711 50.669 61.711 50.005 L 61.711 50.005 L 61.711 50.005 Q 61.711 49.273 61.491 48.711 L 61.491 48.711 L 61.491 48.711 Q 61.271 48.15 60.939 47.832 L 60.939 47.832 L 60.939 47.832 Q 60.607 47.515 60.148 47.31 L 60.148 47.31 L 60.148 47.31 Q 59.689 47.105 59.279 47.041 L 59.279 47.041 L 59.279 47.041 Q 58.869 46.978 58.43 46.978 L 58.43 46.978 Z  M 69.914 49.937 L 65.969 45.034 L 68.811 45.034 L 71.73 48.56 L 74.543 45.034 L 77.248 45.034 L 73.264 49.947 L 77.053 54.683 L 74.211 54.683 L 71.428 51.363 L 68.781 54.683 L 66.086 54.683 L 69.914 49.937 L 69.914 49.937 L 69.914 49.937 Z  M 24.826 45.425 L 24.826 43.023 L 34.152 47.613 L 34.152 49.732 L 24.826 54.146 L 24.826 51.646 L 31.145 48.609 L 24.826 45.425 L 24.826 45.425 L 24.826 45.425 Z  M 46.027 44.849 L 46.027 44.849 L 46.027 44.849 Q 47.082 44.849 47.878 45.039 L 47.878 45.039 L 47.878 45.039 Q 48.674 45.23 49.162 45.542 L 49.162 45.542 L 49.162 45.542 Q 49.65 45.855 49.953 46.324 L 49.953 46.324 L 49.953 46.324 Q 50.256 46.792 50.368 47.276 L 50.368 47.276 L 50.368 47.276 Q 50.48 47.759 50.48 48.355 L 50.48 48.355 L 50.48 54.683 L 48.684 54.683 L 48.41 54.048 L 48.41 54.048 Q 47.111 54.878 45.451 54.878 L 45.451 54.878 L 45.451 54.878 Q 43.645 54.878 42.521 54.029 L 42.521 54.029 L 42.521 54.029 Q 41.398 53.179 41.398 52.017 L 41.398 52.017 L 41.398 52.017 Q 41.398 51.294 41.765 50.757 L 41.765 50.757 L 41.765 50.757 Q 42.131 50.22 42.727 49.898 L 42.727 49.898 L 42.727 49.898 Q 43.322 49.575 44.221 49.37 L 44.221 49.37 L 44.221 49.37 Q 45.119 49.165 46.022 49.087 L 46.022 49.087 L 46.022 49.087 Q 46.926 49.009 48.068 48.999 L 48.068 48.999 L 48.068 48.667 L 48.068 48.667 Q 48.068 48.296 48.005 48.052 L 48.005 48.052 L 48.005 48.052 Q 47.941 47.808 47.727 47.534 L 47.727 47.534 L 47.727 47.534 Q 47.512 47.261 47.009 47.119 L 47.009 47.119 L 47.009 47.119 Q 46.506 46.978 45.725 46.978 L 45.725 46.978 L 45.725 46.978 Q 44.631 46.978 42.824 47.407 L 42.824 47.407 L 42.434 47.515 L 41.936 45.591 L 42.277 45.474 L 42.277 45.474 Q 44.084 44.849 46.027 44.849 L 46.027 44.849 Z  M 59.064 44.849 L 59.064 44.849 L 59.064 44.849 Q 59.797 44.849 60.48 44.995 L 60.48 44.995 L 60.48 44.995 Q 61.164 45.142 61.828 45.498 L 61.828 45.498 L 61.828 45.498 Q 62.492 45.855 62.98 46.397 L 62.98 46.397 L 62.98 46.397 Q 63.469 46.939 63.771 47.803 L 63.771 47.803 L 63.771 47.803 Q 64.074 48.667 64.074 49.761 L 64.074 49.761 L 64.074 49.761 Q 64.074 52.154 62.629 53.516 L 62.629 53.516 L 62.629 53.516 Q 61.184 54.878 58.732 54.878 L 58.732 54.878 L 58.732 54.878 Q 57.59 54.878 56.496 54.546 L 56.496 54.546 L 56.496 59.868 L 53.996 59.868 L 53.996 45.034 L 55.773 45.034 L 55.998 45.493 L 55.998 45.493 Q 57.492 44.849 59.064 44.849 L 59.064 44.849 Z " fill-rule="evenodd" fill="none" mask="url(#_mask_IGGQo1S8PP5QkLM56FmZp9GSBiMbuoE7)" vector-effect="non-scaling-stroke" stroke-width="6" stroke="rgb(0,0,0)" stroke-linejoin="miter" stroke-linecap="butt" stroke-miterlimit="4"/></g></svg>