<?xml version="1.0" encoding="UTF-8" standalone="no"?><!-- Generator: Gravit.io --><svg xmlns="http://www.w3.org/2000/svg" xmlns:xlink="http://www.w3.org/1999/xlink" style="isolation:isolate" viewBox="0 0 128 128" width="128pt" height="128pt"><defs><clipPath id="_clipPath_PUi8hTGcn1q4pLap2JdhVF9BRtHnR0rp"><rect width="128" height="128"/></clipPath></defs><g clip-path="url(#_clipPath_PUi8hTGcn1q4pLap2JdhVF9BRtHnR0rp)"><path d=" M 18.247 15.681 L 109.753 15.681 C 114.788 15.681 118.875 19.769 118.875 24.804 L 118.875 103.196 C 118.875 108.231 114.788 112.319 109.753 112.319 L 18.247 112.319 C 13.212 112.319 9.125 108.231 9.125 103.196 L 9.125 24.804 C 9.125 19.769 13.212 15.681 18.247 15.681 Z  M 18.25 21.68 L 109.75 21.68 C 110.58 21.68 111.38 22.01 111.96 22.6 C 112.55 23.18 112.87 23.98 112.87 24.8 L 112.88 103.2 C 112.88 104.02 112.55 104.82 111.96 105.4 C 111.38 105.99 110.58 106.32 109.75 106.32 L 18.25 106.32 C 17.42 106.32 16.62 105.99 16.04 105.4 C 15.45 104.82 15.12 104.02 15.12 103.2 L 15.13 24.8 C 15.13 23.98 15.45 23.18 16.04 22.6 C 16.62 22.01 17.42 21.68 18.25 21.68 Z " fill-rule="evenodd" fill="rgb(0,0,0)"/><path d=" M 56.388 53.976 L 56.388 53.976 L 56.388 53.976 Q 57.991 53.976 59.2 54.267 L 59.2 54.267 L 59.2 54.267 Q 60.41 54.555 61.151 55.031 L 61.151 55.031 L 61.151 55.031 Q 61.893 55.505 62.353 56.218 L 62.353 56.218 L 62.353 56.218 Q 62.813 56.93 62.984 57.664 L 62.984 57.664 L 62.984 57.664 Q 63.154 58.399 63.154 59.304 L 63.154 59.304 L 63.154 68.918 L 60.425 68.918 L 60.009 67.955 L 60.009 67.955 Q 58.035 69.216 55.513 69.216 L 55.513 69.216 L 55.513 69.216 Q 52.769 69.216 51.061 67.925 L 51.061 67.925 L 51.061 67.925 Q 49.354 66.635 49.354 64.868 L 49.354 64.868 L 49.354 64.868 Q 49.354 63.771 49.912 62.955 L 49.912 62.955 L 49.912 62.955 Q 50.468 62.139 51.374 61.648 L 51.374 61.648 L 51.374 61.648 Q 52.278 61.159 53.644 60.847 L 53.644 60.847 L 53.644 60.847 Q 55.008 60.536 56.38 60.417 L 56.38 60.417 L 56.38 60.417 Q 57.754 60.299 59.489 60.284 L 59.489 60.284 L 59.489 59.779 L 59.489 59.779 Q 59.489 59.215 59.393 58.845 L 59.393 58.845 L 59.393 58.845 Q 59.296 58.472 58.971 58.058 L 58.971 58.058 L 58.971 58.058 Q 58.644 57.643 57.88 57.427 L 57.88 57.427 L 57.88 57.427 Q 57.116 57.211 55.929 57.211 L 55.929 57.211 L 55.929 57.211 Q 54.267 57.211 51.521 57.865 L 51.521 57.865 L 50.929 58.027 L 50.172 55.105 L 50.69 54.926 L 50.69 54.926 Q 53.436 53.976 56.388 53.976 Z  M 59.489 65.135 L 59.489 65.135 L 59.489 63.043 L 59.133 63.043 L 59.133 63.043 Q 56.136 63.043 54.674 63.4 L 54.674 63.4 L 54.674 63.4 Q 53.214 63.755 53.214 64.602 L 53.214 64.602 L 53.214 64.602 Q 53.214 65.135 54.103 65.611 L 54.103 65.611 L 54.103 65.611 Q 54.993 66.085 56.284 66.085 L 56.284 66.085 L 56.284 66.085 Q 58.109 66.085 59.489 65.135 Z  M 76.196 53.976 L 76.196 53.976 L 76.196 53.976 Q 77.31 53.976 78.348 54.2 L 78.348 54.2 L 78.348 54.2 Q 79.387 54.422 80.396 54.964 L 80.396 54.964 L 80.396 54.964 Q 81.405 55.505 82.146 56.328 L 82.146 56.328 L 82.146 56.328 Q 82.889 57.152 83.348 58.466 L 83.348 58.466 L 83.348 58.466 Q 83.809 59.779 83.809 61.441 L 83.809 61.441 L 83.809 61.441 Q 83.809 65.076 81.613 67.145 L 81.613 67.145 L 81.613 67.145 Q 79.417 69.216 75.692 69.216 L 75.692 69.216 L 75.692 69.216 Q 73.957 69.216 72.294 68.712 L 72.294 68.712 L 72.294 76.798 L 68.496 76.798 L 68.496 54.259 L 71.196 54.259 L 71.538 54.956 L 71.538 54.956 Q 73.808 53.976 76.196 53.976 Z  M 75.233 57.211 L 75.233 57.211 L 75.233 57.211 Q 73.764 57.211 72.294 57.731 L 72.294 57.731 L 72.294 65.639 L 72.294 65.639 Q 73.838 66.085 75.277 66.085 L 75.277 66.085 L 75.277 66.085 Q 75.944 66.085 76.569 65.981 L 76.569 65.981 L 76.569 65.981 Q 77.192 65.878 77.874 65.588 L 77.874 65.588 L 77.874 65.588 Q 78.556 65.299 79.06 64.839 L 79.06 64.839 L 79.06 64.839 Q 79.565 64.378 79.892 63.599 L 79.892 63.599 L 79.892 63.599 Q 80.218 62.821 80.218 61.812 L 80.218 61.812 L 80.218 61.812 Q 80.218 60.698 79.884 59.846 L 79.884 59.846 L 79.884 59.846 Q 79.55 58.992 79.045 58.51 L 79.045 58.51 L 79.045 58.51 Q 78.541 58.027 77.843 57.716 L 77.843 57.716 L 77.843 57.716 Q 77.146 57.404 76.523 57.309 L 76.523 57.309 L 76.523 57.309 Q 75.9 57.211 75.233 57.211 Z  M 92.682 61.707 L 86.688 54.259 L 91.006 54.259 L 95.441 59.615 L 99.715 54.259 L 103.825 54.259 L 97.772 61.722 L 103.529 68.918 L 99.211 68.918 L 94.982 63.874 L 90.96 68.918 L 86.866 68.918 L 92.682 61.707 L 92.682 61.707 Z  M 24.175 54.853 L 24.175 51.202 L 38.345 58.176 L 38.345 61.396 L 24.175 68.102 L 24.175 64.304 L 33.776 59.689 L 24.175 54.853 L 24.175 54.853 Z " fill="rgb(0,0,0)"/></g></svg>