<?xml version="1.0" encoding="UTF-8" standalone="no"?><!-- Generator: Gravit.io --><svg xmlns="http://www.w3.org/2000/svg" xmlns:xlink="http://www.w3.org/1999/xlink" style="isolation:isolate" viewBox="0 0 128 128" width="128pt" height="128pt"><defs><clipPath id="_clipPath_pd5fKczASpw3SUSKk5w3ySrjzSsovsG7"><rect width="128" height="128"/></clipPath></defs><g clip-path="url(#_clipPath_pd5fKczASpw3SUSKk5w3ySrjzSsovsG7)"><g><linearGradient id="_lgradient_0" x1="0" y1="0.5" x2="1" y2="0.5" gradientTransform="matrix(94.25,0,0,82.916,16.875,26.626)" gradientUnits="userSpaceOnUse"><stop offset="0%" stop-opacity="1" style="stop-color:rgb(56,76,106)"/><stop offset="5.833333333333333%" stop-opacity="1" style="stop-color:rgb(72,100,142)"/><stop offset="11.25%" stop-opacity="1" style="stop-color:rgb(55,76,104)"/><stop offset="17.916666666666668%" stop-opacity="1" style="stop-color:rgb(49,68,96)"/><stop offset="41.66666666666667%" stop-opacity="1" style="stop-color:rgb(45,63,89)"/><stop offset="55.00000000000001%" stop-opacity="1" style="stop-color:rgb(45,63,89)"/><stop offset="82.5%" stop-opacity="1" style="stop-color:rgb(49,68,96)"/><stop offset="89.58333333333334%" stop-opacity="1" style="stop-color:rgb(55,76,104)"/><stop offset="94.58333333333333%" stop-opacity="1" style="stop-color:rgb(72,100,142)"/><stop offset="98.33333333333333%" stop-opacity="1" style="stop-color:rgb(56,76,106)"/></linearGradient><path d=" M 111.125 26.626 L 111.125 26.626 L 111.125 94.013 L 111.125 102.836 C 111.125 106.541 107.879 109.542 103.876 109.542 L 24.124 109.542 C 20.121 109.542 16.875 106.541 16.875 102.836 L 16.875 94.013 C 16.875 97.561 20.121 100.436 24.124 100.436 L 103.876 100.436 C 107.879 100.436 111.125 97.561 111.125 94.013 L 111.125 94.013 L 111.125 26.626 Z " fill="url(#_lgradient_0)"/><path d=" M 24.124 18.458 L 103.876 18.458 C 107.879 18.458 111.125 21.283 111.125 24.77 L 111.125 94.243 C 111.125 97.73 107.879 100.555 103.876 100.555 L 24.124 100.555 C 20.121 100.555 16.875 97.73 16.875 94.243 L 16.875 24.77 C 16.875 21.283 20.121 18.458 24.124 18.458 Z " fill="rgb(138,183,255)"/><path d=" M 24.58 18.927 L 103.42 18.927 C 107.377 18.927 110.586 21.72 110.586 25.168 L 110.586 93.846 C 110.586 97.293 107.377 100.086 103.42 100.086 L 24.58 100.086 C 20.623 100.086 17.414 97.293 17.414 93.846 L 17.414 25.168 C 17.414 21.72 20.623 18.927 24.58 18.927 Z " fill="rgb(31,40,55)"/><clipPath id="_clipPath_kEk2ch8eTzljWY5sMsqWPvFHAHyGmYso"><path d=" M 24.58 18.927 L 103.42 18.927 C 107.377 18.927 110.586 21.72 110.586 25.168 L 110.586 93.846 C 110.586 97.293 107.377 100.086 103.42 100.086 L 24.58 100.086 C 20.623 100.086 17.414 97.293 17.414 93.846 L 17.414 25.168 C 17.414 21.72 20.623 18.927 24.58 18.927 Z " fill="rgb(31,40,55)"/></clipPath><g clip-path="url(#_clipPath_kEk2ch8eTzljWY5sMsqWPvFHAHyGmYso)"><mask id="_mask_G7wMtDnM5SCutZcM0Am9egN4gax98apJ" x="-200%" y="-200%" width="400%" height="400%"><rect x="-200%" y="-200%" width="400%" height="400%" style="fill:white;"/><path d=" M 11.613 24.77 L 117.644 24.77 M 105.037 13.802 L 105.037 106.052 M 11.613 31.802 L 117.644 31.802 M 96.955 13.802 L 96.955 106.052 M 11.613 38.833 L 117.644 38.833 M 88.874 13.802 L 88.874 106.052 M 11.613 45.864 L 117.644 45.864 M 80.792 13.802 L 80.792 106.052 M 11.613 52.895 L 117.644 52.895 M 72.71 13.802 L 72.71 106.052 M 11.613 59.927 L 117.644 59.927 M 64.629 13.802 L 64.629 106.052 M 11.613 66.958 L 117.644 66.958 M 56.547 13.802 L 56.547 106.052 M 11.613 73.989 L 117.644 73.989 M 48.465 13.802 L 48.465 106.052 M 11.613 81.02 L 117.644 81.02 M 40.384 13.802 L 40.384 106.052 M 11.613 88.052 L 117.644 88.052 M 32.302 13.802 L 32.302 106.052 M 11.613 95.083 L 117.644 95.083 M 24.22 13.802 L 24.22 106.052" fill-rule="evenodd" fill="black" stroke="none"/></mask><path d=" M 11.613 24.77 L 117.644 24.77 M 105.037 13.802 L 105.037 106.052 M 11.613 31.802 L 117.644 31.802 M 96.955 13.802 L 96.955 106.052 M 11.613 38.833 L 117.644 38.833 M 88.874 13.802 L 88.874 106.052 M 11.613 45.864 L 117.644 45.864 M 80.792 13.802 L 80.792 106.052 M 11.613 52.895 L 117.644 52.895 M 72.71 13.802 L 72.71 106.052 M 11.613 59.927 L 117.644 59.927 M 64.629 13.802 L 64.629 106.052 M 11.613 66.958 L 117.644 66.958 M 56.547 13.802 L 56.547 106.052 M 11.613 73.989 L 117.644 73.989 M 48.465 13.802 L 48.465 106.052 M 11.613 81.02 L 117.644 81.02 M 40.384 13.802 L 40.384 106.052 M 11.613 88.052 L 117.644 88.052 M 32.302 13.802 L 32.302 106.052 M 11.613 95.083 L 117.644 95.083 M 24.22 13.802 L 24.22 106.052" fill-rule="evenodd" fill="none"/><path d=" M 11.613 24.77 L 117.644 24.77 M 105.037 13.802 L 105.037 106.052 M 11.613 31.802 L 117.644 31.802 M 96.955 13.802 L 96.955 106.052 M 11.613 38.833 L 117.644 38.833 M 88.874 13.802 L 88.874 106.052 M 11.613 45.864 L 117.644 45.864 M 80.792 13.802 L 80.792 106.052 M 11.613 52.895 L 117.644 52.895 M 72.71 13.802 L 72.71 106.052 M 11.613 59.927 L 117.644 59.927 M 64.629 13.802 L 64.629 106.052 M 11.613 66.958 L 117.644 66.958 M 56.547 13.802 L 56.547 106.052 M 11.613 73.989 L 117.644 73.989 M 48.465 13.802 L 48.465 106.052 M 11.613 81.02 L 117.644 81.02 M 40.384 13.802 L 40.384 106.052 M 11.613 88.052 L 117.644 88.052 M 32.302 13.802 L 32.302 106.052 M 11.613 95.083 L 117.644 95.083 M 24.22 13.802 L 24.22 106.052" fill-rule="evenodd" fill="none" mask="url(#_mask_G7wMtDnM5SCutZcM0Am9egN4gax98apJ)" vector-effect="non-scaling-stroke" stroke-width="0.2" stroke="rgb(138,183,255)" stroke-opacity="0.26" stroke-linejoin="miter" stroke-linecap="butt" stroke-miterlimit="4"/></g></g><path d=" M 46.027 40.355 L 46.027 40.355 L 46.027 40.355 Q 47.082 40.355 47.878 40.546 L 47.878 40.546 L 47.878 40.546 Q 48.674 40.736 49.162 41.049 L 49.162 41.049 L 49.162 41.049 Q 49.65 41.361 49.953 41.83 L 49.953 41.83 L 49.953 41.83 Q 50.256 42.299 50.368 42.782 L 50.368 42.782 L 50.368 42.782 Q 50.48 43.266 50.48 43.861 L 50.48 43.861 L 50.48 50.189 L 48.684 50.189 L 48.41 49.555 L 48.41 49.555 Q 47.111 50.385 45.451 50.385 L 45.451 50.385 L 45.451 50.385 Q 43.645 50.385 42.521 49.535 L 42.521 49.535 L 42.521 49.535 Q 41.398 48.686 41.398 47.523 L 41.398 47.523 L 41.398 47.523 Q 41.398 46.801 41.765 46.264 L 41.765 46.264 L 41.765 46.264 Q 42.131 45.727 42.727 45.404 L 42.727 45.404 L 42.727 45.404 Q 43.322 45.082 44.221 44.877 L 44.221 44.877 L 44.221 44.877 Q 45.119 44.672 46.022 44.594 L 46.022 44.594 L 46.022 44.594 Q 46.926 44.516 48.068 44.506 L 48.068 44.506 L 48.068 44.174 L 48.068 44.174 Q 48.068 43.803 48.005 43.559 L 48.005 43.559 L 48.005 43.559 Q 47.941 43.314 47.727 43.041 L 47.727 43.041 L 47.727 43.041 Q 47.512 42.768 47.009 42.626 L 47.009 42.626 L 47.009 42.626 Q 46.506 42.484 45.725 42.484 L 45.725 42.484 L 45.725 42.484 Q 44.631 42.484 42.824 42.914 L 42.824 42.914 L 42.434 43.021 L 41.936 41.098 L 42.277 40.98 L 42.277 40.98 Q 44.084 40.355 46.027 40.355 Z  M 48.068 47.699 L 48.068 47.699 L 48.068 46.322 L 47.834 46.322 L 47.834 46.322 Q 45.861 46.322 44.899 46.557 L 44.899 46.557 L 44.899 46.557 Q 43.938 46.791 43.938 47.348 L 43.938 47.348 L 43.938 47.348 Q 43.938 47.699 44.523 48.012 L 44.523 48.012 L 44.523 48.012 Q 45.109 48.324 45.959 48.324 L 45.959 48.324 L 45.959 48.324 Q 47.16 48.324 48.068 47.699 Z  M 59.064 40.355 L 59.064 40.355 L 59.064 40.355 Q 59.797 40.355 60.48 40.502 L 60.48 40.502 L 60.48 40.502 Q 61.164 40.648 61.828 41.005 L 61.828 41.005 L 61.828 41.005 Q 62.492 41.361 62.98 41.903 L 62.98 41.903 L 62.98 41.903 Q 63.469 42.445 63.771 43.31 L 63.771 43.31 L 63.771 43.31 Q 64.074 44.174 64.074 45.268 L 64.074 45.268 L 64.074 45.268 Q 64.074 47.66 62.629 49.022 L 62.629 49.022 L 62.629 49.022 Q 61.184 50.385 58.732 50.385 L 58.732 50.385 L 58.732 50.385 Q 57.59 50.385 56.496 50.053 L 56.496 50.053 L 56.496 55.375 L 53.996 55.375 L 53.996 40.541 L 55.773 40.541 L 55.998 41 L 55.998 41 Q 57.492 40.355 59.064 40.355 Z  M 58.43 42.484 L 58.43 42.484 L 58.43 42.484 Q 57.463 42.484 56.496 42.826 L 56.496 42.826 L 56.496 48.031 L 56.496 48.031 Q 57.512 48.324 58.459 48.324 L 58.459 48.324 L 58.459 48.324 Q 58.898 48.324 59.309 48.256 L 59.309 48.256 L 59.309 48.256 Q 59.719 48.188 60.168 47.997 L 60.168 47.997 L 60.168 47.997 Q 60.617 47.807 60.949 47.504 L 60.949 47.504 L 60.949 47.504 Q 61.281 47.201 61.496 46.688 L 61.496 46.688 L 61.496 46.688 Q 61.711 46.176 61.711 45.512 L 61.711 45.512 L 61.711 45.512 Q 61.711 44.779 61.491 44.218 L 61.491 44.218 L 61.491 44.218 Q 61.271 43.656 60.939 43.339 L 60.939 43.339 L 60.939 43.339 Q 60.607 43.021 60.148 42.816 L 60.148 42.816 L 60.148 42.816 Q 59.689 42.611 59.279 42.548 L 59.279 42.548 L 59.279 42.548 Q 58.869 42.484 58.43 42.484 Z  M 69.914 45.443 L 65.969 40.541 L 68.811 40.541 L 71.73 44.066 L 74.543 40.541 L 77.248 40.541 L 73.264 45.453 L 77.053 50.189 L 74.211 50.189 L 71.428 46.869 L 68.781 50.189 L 66.086 50.189 L 69.914 45.443 L 69.914 45.443 Z  M 24.826 40.932 L 24.826 38.529 L 34.152 43.119 L 34.152 45.238 L 24.826 49.652 L 24.826 47.152 L 31.145 44.115 L 24.826 40.932 L 24.826 40.932 Z " fill="rgb(110,165,255)"/></g></svg>